<?xml version="1.0" encoding="UTF-8" standalone="no"?>
<!-- Created with Inkscape (http://www.inkscape.org/) -->

<svg
   version="1.1"
   id="svg1"
   width="37.487"
   height="37.441406"
   viewBox="0 0 37.487 37.441407"
   sodipodi:docname="logo.svg"
   inkscape:version="1.3 (0e150ed6c4, 2023-07-21)"
   inkscape:export-filename="logo.png"
   inkscape:export-xdpi="96"
   inkscape:export-ydpi="96"
   xmlns:inkscape="http://www.inkscape.org/namespaces/inkscape"
   xmlns:sodipodi="http://sodipodi.sourceforge.net/DTD/sodipodi-0.dtd"
   xmlns="http://www.w3.org/2000/svg"
   xmlns:svg="http://www.w3.org/2000/svg">
  <defs
     id="defs1" />
  <sodipodi:namedview
     id="namedview1"
     pagecolor="#ffffff"
     bordercolor="#666666"
     borderopacity="1.0"
     inkscape:showpageshadow="2"
     inkscape:pageopacity="0.0"
     inkscape:pagecheckerboard="0"
     inkscape:deskcolor="#d1d1d1"
     showgrid="false"
     inkscape:zoom="16"
     inkscape:cx="24.90625"
     inkscape:cy="16.40625"
     inkscape:window-width="1920"
     inkscape:window-height="1032"
     inkscape:window-x="0"
     inkscape:window-y="0"
     inkscape:window-maximized="1"
     inkscape:current-layer="g1" />
  <g
     inkscape:groupmode="layer"
     inkscape:label="Image"
     id="g1">
    <path
       id="path1-3"
       style="fill:#15b788;fill-opacity:1"
       d="M 4.8471897,0 C 2.6582871,0 1.8519464,0.2727433 1.2923227,0.6315343 0.66519091,1.0676124 0.35673711,1.511869 0.13630511,2.3603546 c -0.1603318,0.7995144 -0.134818,16.0576144 -0.134818,16.0576144 0.00524,15.287445 0.00855,15.347654 0.7207031,16.589843 0.39310439,0.685679 1.21487159,1.513524 1.82812499,1.839844 0.9545771,0.507943 1.8662511,0.59375 6.3359372,0.59375 3.8822736,0 5.4433826,-0.116264 6.0859376,-0.453125 0.475259,-0.249156 3.759875,-3.382097 7.298828,-6.960937 6.87935,-6.956887 7.126631,-7.326017 6.445313,-9.658203 -0.409881,-1.403042 -1.105013,-2.116899 -2.889954,-2.443299 -1.734508,-0.317177 -2.892277,0.171113 -5.635437,2.818299 -3.732482,3.601895 -6.402732,4.509191 -10.109375,3.43164 C 7.6151794,23.458784 5.1464023,21.062702 4.3237523,18.585938 3.1542763,15.064974 4.1061243,11.646722 7.0464094,8.8007809 8.7346104,7.1667479 9.2768774,6.1173181 9.2768774,4.4804688 9.2768774,1.765303 7.5311834,0 4.8471897,0 Z"
       sodipodi:nodetypes="scccsssssssssssss" />
    <path
       id="path1-1"
       style="fill:#1394bb;fill-opacity:1"
       d="m 34.735309,0.25010616 c -1.065148,-0.3389227 -5.926464,-0.2351317 -5.926464,-0.2351317 -5.004709,0.00181 -5.947656,0.079584 -6.671875,0.5585938 -0.463915,0.3068405 -3.522152,3.23528154 -6.794922,6.50585934 -6.470884,6.4665474 -7.180001,7.4975344 -6.62671,9.5522994 0.487434,1.810196 1.603804,2.687208 3.632812,2.855469 0.653336,0.0624 0.842765,0.08961 1.591399,-0.123867 0.895436,-0.378283 2.820711,-2.298008 2.820711,-2.298008 3.360699,-3.181182 4.777333,-4.113374 7.673585,-4.179252 1.921194,-0.0437 2.343132,-5.43e-4 3.964844,0.701172 4.55323,2.227688 6.449322,7.331433 4.378906,11.785156 -0.347806,0.748173 -1.378336,2.151142 -2.291016,3.119141 -1.836285,1.947584 -2.226562,2.709898 -2.226562,4.351562 0,1.875077 0.739694,3.15073 2.28125,3.933594 2.331522,1.18404 4.56289,0.629127 6.216797,-1.546875 0.591922,-0.778777 0.626637,-1.537924 0.716797,-15.769531 C 37.537091,9.6372136 37.340525,4.1159277 37.23072,3.2513058 37.134055,2.4901512 36.825187,1.9249184 36.490531,1.4866968 36.033535,0.87318906 35.623422,0.59470416 34.735309,0.25010616 Z"
       sodipodi:nodetypes="ccssscccscssssssscc" />
  </g>
</svg>
